<?xml version="1.0" encoding="UTF-8" standalone="no"?><!DOCTYPE svg PUBLIC "-//W3C//DTD SVG 1.1//EN" "http://www.w3.org/Graphics/SVG/1.1/DTD/svg11.dtd"><!-- Generated by graphviz version 2.40.1 (20161225.0304)
 --><!-- Title: G Pages: 1 --><svg xmlns="http://www.w3.org/2000/svg" xmlns:xlink="http://www.w3.org/1999/xlink" width="609pt" height="214pt" viewBox="0.00 0.00 608.80 214.00">
<g id="graph0" class="graph" transform="scale(1 1) rotate(0) translate(4 210)">
<title>G</title>
<polygon fill="#ffffff" stroke="transparent" points="-4,4 -4,-210 604.8,-210 604.8,4 -4,4"/>
<g id="clust1" class="cluster">
<title>cluster1</title>
<polygon fill="none" stroke="#000000" points="8,-8 8,-99 592.8,-99 592.8,-8 8,-8"/>
<text text-anchor="middle" x="300.4" y="-82.4" font-family="Times,serif" font-size="14.00" fill="#000000">Após a inversão</text>
</g>
<g id="clust2" class="cluster">
<title>cluster2</title>
<polygon fill="none" stroke="#000000" points="8,-107 8,-198 592.8,-198 592.8,-107 8,-107"/>
<text text-anchor="middle" x="300.4" y="-181.4" font-family="Times,serif" font-size="14.00" fill="#000000">Antes da inversão</text>
</g>
<!-- n00 -->
<g id="node1" class="node">
<title>n00</title>
<ellipse fill="#c0c0c0" stroke="#c0c0c0" cx="30.4" cy="-52" rx="14.4" ry="14.4"/>
</g>
<!-- n01 -->
<g id="node2" class="node">
<title>n01</title>
<polygon fill="none" stroke="#000000" points="80.8,-16.2 80.8,-65.8 134.8,-65.8 134.8,-16.2 80.8,-16.2"/>
<text text-anchor="middle" x="107.8" y="-49.2" font-family="Times,serif" font-size="14.00" fill="#000000">1</text>
<polyline fill="none" stroke="#000000" points="80.8,-41 134.8,-41 "/>
<text text-anchor="middle" x="107.8" y="-24.4" font-family="Times,serif" font-size="14.00" fill="#000000">*next</text>
</g>
<!-- n00&#45;&gt;n01 -->
<g id="edge1" class="edge">
<title>n00:f2-&gt;n01:f1</title>
<path fill="none" stroke="#000000" d="M44.9549,-52.4415C52.2682,-52.6362 61.5012,-52.8428 70.6359,-52.9412"/>
<polygon fill="#000000" stroke="#000000" points="70.7799,-56.442 80.8,-53 70.8204,-49.4421 70.7799,-56.442"/>
</g>
<!-- n02 -->
<g id="node3" class="node">
<title>n02</title>
<polygon fill="none" stroke="#000000" points="170.8,-16.2 170.8,-65.8 224.8,-65.8 224.8,-16.2 170.8,-16.2"/>
<text text-anchor="middle" x="197.8" y="-49.2" font-family="Times,serif" font-size="14.00" fill="#000000">2</text>
<polyline fill="none" stroke="#000000" points="170.8,-41 224.8,-41 "/>
<text text-anchor="middle" x="197.8" y="-24.4" font-family="Times,serif" font-size="14.00" fill="#000000">*next</text>
</g>
<!-- n01&#45;&gt;n02 -->
<g id="edge2" class="edge">
<title>n01:f2-&gt;n02:f1</title>
<path fill="none" stroke="#000000" d="M134.8,-29C149.9734,-29 151.6428,-43.9429 161.1192,-50.2469"/>
<polygon fill="#000000" stroke="#000000" points="160.224,-53.631 170.8,-53 162.1388,-46.898 160.224,-53.631"/>
</g>
<!-- n03 -->
<g id="node4" class="node">
<title>n03</title>
<polygon fill="none" stroke="#000000" points="260.8,-16.2 260.8,-65.8 314.8,-65.8 314.8,-16.2 260.8,-16.2"/>
<text text-anchor="middle" x="287.8" y="-49.2" font-family="Times,serif" font-size="14.00" fill="#000000">3</text>
<polyline fill="none" stroke="#000000" points="260.8,-41 314.8,-41 "/>
<text text-anchor="middle" x="287.8" y="-24.4" font-family="Times,serif" font-size="14.00" fill="#000000">*next</text>
</g>
<!-- n02&#45;&gt;n03 -->
<g id="edge3" class="edge">
<title>n02:f2-&gt;n03:f1</title>
<path fill="none" stroke="#000000" d="M224.8,-29C239.9734,-29 241.6428,-43.9429 251.1192,-50.2469"/>
<polygon fill="#000000" stroke="#000000" points="250.224,-53.631 260.8,-53 252.1388,-46.898 250.224,-53.631"/>
</g>
<!-- n04 -->
<g id="node5" class="node">
<title>n04</title>
<polygon fill="none" stroke="#000000" points="350.8,-16.2 350.8,-65.8 404.8,-65.8 404.8,-16.2 350.8,-16.2"/>
<text text-anchor="middle" x="377.8" y="-49.2" font-family="Times,serif" font-size="14.00" fill="#000000">4</text>
<polyline fill="none" stroke="#000000" points="350.8,-41 404.8,-41 "/>
<text text-anchor="middle" x="377.8" y="-24.4" font-family="Times,serif" font-size="14.00" fill="#000000">*next</text>
</g>
<!-- n03&#45;&gt;n04 -->
<g id="edge4" class="edge">
<title>n03:f2-&gt;n04:f1</title>
<path fill="none" stroke="#000000" d="M314.8,-29C329.9734,-29 331.6428,-43.9429 341.1192,-50.2469"/>
<polygon fill="#000000" stroke="#000000" points="340.224,-53.631 350.8,-53 342.1388,-46.898 340.224,-53.631"/>
</g>
<!-- n05 -->
<g id="node6" class="node">
<title>n05</title>
<polygon fill="none" stroke="#000000" points="440.8,-16.2 440.8,-65.8 494.8,-65.8 494.8,-16.2 440.8,-16.2"/>
<text text-anchor="middle" x="467.8" y="-49.2" font-family="Times,serif" font-size="14.00" fill="#000000">5</text>
<polyline fill="none" stroke="#000000" points="440.8,-41 494.8,-41 "/>
<text text-anchor="middle" x="467.8" y="-24.4" font-family="Times,serif" font-size="14.00" fill="#000000">*next</text>
</g>
<!-- n04&#45;&gt;n05 -->
<g id="edge5" class="edge">
<title>n04:f2-&gt;n05:f1</title>
<path fill="none" stroke="#000000" d="M404.8,-29C419.9734,-29 421.6428,-43.9429 431.1192,-50.2469"/>
<polygon fill="#000000" stroke="#000000" points="430.224,-53.631 440.8,-53 432.1388,-46.898 430.224,-53.631"/>
</g>
<!-- n06 -->
<g id="node7" class="node">
<title>n06</title>
<polygon fill="none" stroke="#c0c0c0" points="530.8,-16.5 530.8,-45.5 584.8,-45.5 584.8,-16.5 530.8,-16.5"/>
<text text-anchor="middle" x="557.8" y="-26.9" font-family="Times,serif" font-size="14.00" fill="#000000">None</text>
</g>
<!-- n05&#45;&gt;n06 -->
<g id="edge6" class="edge">
<title>n05:f2-&gt;n06:f1</title>
<path fill="none" stroke="#000000" d="M494.8,-29C503.1244,-29 512.0644,-29.1766 520.5191,-29.4248"/>
<polygon fill="#000000" stroke="#000000" points="520.4068,-32.9229 530.5173,-29.7561 520.6387,-25.9268 520.4068,-32.9229"/>
</g>
<!-- n0 -->
<g id="node8" class="node">
<title>n0</title>
<ellipse fill="#c0c0c0" stroke="#c0c0c0" cx="30.4" cy="-151" rx="14.4" ry="14.4"/>
</g>
<!-- n1 -->
<g id="node9" class="node">
<title>n1</title>
<polygon fill="none" stroke="#000000" points="80.8,-115.2 80.8,-164.8 134.8,-164.8 134.8,-115.2 80.8,-115.2"/>
<text text-anchor="middle" x="107.8" y="-148.2" font-family="Times,serif" font-size="14.00" fill="#000000">5</text>
<polyline fill="none" stroke="#000000" points="80.8,-140 134.8,-140 "/>
<text text-anchor="middle" x="107.8" y="-123.4" font-family="Times,serif" font-size="14.00" fill="#000000">*next</text>
</g>
<!-- n0&#45;&gt;n1 -->
<g id="edge7" class="edge">
<title>n0:f2-&gt;n1:f1</title>
<path fill="none" stroke="#000000" d="M44.9549,-151.4415C52.2682,-151.6362 61.5012,-151.8428 70.6359,-151.9412"/>
<polygon fill="#000000" stroke="#000000" points="70.7799,-155.442 80.8,-152 70.8204,-148.4421 70.7799,-155.442"/>
</g>
<!-- n2 -->
<g id="node10" class="node">
<title>n2</title>
<polygon fill="none" stroke="#000000" points="170.8,-115.2 170.8,-164.8 224.8,-164.8 224.8,-115.2 170.8,-115.2"/>
<text text-anchor="middle" x="197.8" y="-148.2" font-family="Times,serif" font-size="14.00" fill="#000000">4</text>
<polyline fill="none" stroke="#000000" points="170.8,-140 224.8,-140 "/>
<text text-anchor="middle" x="197.8" y="-123.4" font-family="Times,serif" font-size="14.00" fill="#000000">*next</text>
</g>
<!-- n1&#45;&gt;n2 -->
<g id="edge8" class="edge">
<title>n1:f2-&gt;n2:f1</title>
<path fill="none" stroke="#000000" d="M134.8,-128C149.9734,-128 151.6428,-142.9429 161.1192,-149.2469"/>
<polygon fill="#000000" stroke="#000000" points="160.224,-152.631 170.8,-152 162.1388,-145.898 160.224,-152.631"/>
</g>
<!-- n3 -->
<g id="node11" class="node">
<title>n3</title>
<polygon fill="none" stroke="#000000" points="260.8,-115.2 260.8,-164.8 314.8,-164.8 314.8,-115.2 260.8,-115.2"/>
<text text-anchor="middle" x="287.8" y="-148.2" font-family="Times,serif" font-size="14.00" fill="#000000">3</text>
<polyline fill="none" stroke="#000000" points="260.8,-140 314.8,-140 "/>
<text text-anchor="middle" x="287.8" y="-123.4" font-family="Times,serif" font-size="14.00" fill="#000000">*next</text>
</g>
<!-- n2&#45;&gt;n3 -->
<g id="edge9" class="edge">
<title>n2:f2-&gt;n3:f1</title>
<path fill="none" stroke="#000000" d="M224.8,-128C239.9734,-128 241.6428,-142.9429 251.1192,-149.2469"/>
<polygon fill="#000000" stroke="#000000" points="250.224,-152.631 260.8,-152 252.1388,-145.898 250.224,-152.631"/>
</g>
<!-- n4 -->
<g id="node12" class="node">
<title>n4</title>
<polygon fill="none" stroke="#000000" points="350.8,-115.2 350.8,-164.8 404.8,-164.8 404.8,-115.2 350.8,-115.2"/>
<text text-anchor="middle" x="377.8" y="-148.2" font-family="Times,serif" font-size="14.00" fill="#000000">2</text>
<polyline fill="none" stroke="#000000" points="350.8,-140 404.8,-140 "/>
<text text-anchor="middle" x="377.8" y="-123.4" font-family="Times,serif" font-size="14.00" fill="#000000">*next</text>
</g>
<!-- n3&#45;&gt;n4 -->
<g id="edge10" class="edge">
<title>n3:f2-&gt;n4:f1</title>
<path fill="none" stroke="#000000" d="M314.8,-128C329.9734,-128 331.6428,-142.9429 341.1192,-149.2469"/>
<polygon fill="#000000" stroke="#000000" points="340.224,-152.631 350.8,-152 342.1388,-145.898 340.224,-152.631"/>
</g>
<!-- n5 -->
<g id="node13" class="node">
<title>n5</title>
<polygon fill="none" stroke="#000000" points="440.8,-115.2 440.8,-164.8 494.8,-164.8 494.8,-115.2 440.8,-115.2"/>
<text text-anchor="middle" x="467.8" y="-148.2" font-family="Times,serif" font-size="14.00" fill="#000000">1</text>
<polyline fill="none" stroke="#000000" points="440.8,-140 494.8,-140 "/>
<text text-anchor="middle" x="467.8" y="-123.4" font-family="Times,serif" font-size="14.00" fill="#000000">*next</text>
</g>
<!-- n4&#45;&gt;n5 -->
<g id="edge11" class="edge">
<title>n4:f2-&gt;n5:f1</title>
<path fill="none" stroke="#000000" d="M404.8,-128C419.9734,-128 421.6428,-142.9429 431.1192,-149.2469"/>
<polygon fill="#000000" stroke="#000000" points="430.224,-152.631 440.8,-152 432.1388,-145.898 430.224,-152.631"/>
</g>
<!-- n6 -->
<g id="node14" class="node">
<title>n6</title>
<polygon fill="none" stroke="#c0c0c0" points="530.8,-115.5 530.8,-144.5 584.8,-144.5 584.8,-115.5 530.8,-115.5"/>
<text text-anchor="middle" x="557.8" y="-125.9" font-family="Times,serif" font-size="14.00" fill="#000000">None</text>
</g>
<!-- n5&#45;&gt;n6 -->
<g id="edge12" class="edge">
<title>n5:f2-&gt;n6:f1</title>
<path fill="none" stroke="#000000" d="M494.8,-128C503.1244,-128 512.0644,-128.1766 520.5191,-128.4248"/>
<polygon fill="#000000" stroke="#000000" points="520.4068,-131.9229 530.5173,-128.7561 520.6387,-124.9268 520.4068,-131.9229"/>
</g>
</g>
</svg>